<mxfile host="app.diagrams.net" modified="2023-03-17T22:25:39.312Z" agent="5.0 (Windows NT 10.0; Win64; x64) AppleWebKit/537.36 (KHTML, like Gecko) Chrome/111.0.0.0 Safari/537.36 Edg/111.0.1661.43" etag="a6qnX2mpM5kU-rqKaGgB" version="21.0.6" type="github">
  <diagram name="Página-1" id="ASxa3IMtpb7CEO20rV-t">
    <mxGraphModel dx="1386" dy="788" grid="1" gridSize="10" guides="1" tooltips="1" connect="1" arrows="1" fold="1" page="1" pageScale="1" pageWidth="827" pageHeight="1169" math="0" shadow="0">
      <root>
        <mxCell id="0" />
        <mxCell id="1" parent="0" />
        <mxCell id="Up4gpdICSQP2iPx-IB4q-4" value="Ronda" style="rounded=0;whiteSpace=wrap;html=1;" vertex="1" parent="1">
          <mxGeometry x="320" y="470" width="120" height="60" as="geometry" />
        </mxCell>
        <mxCell id="Up4gpdICSQP2iPx-IB4q-5" value="Resultado" style="rounded=0;whiteSpace=wrap;html=1;" vertex="1" parent="1">
          <mxGeometry x="650" y="470" width="120" height="60" as="geometry" />
        </mxCell>
        <mxCell id="Up4gpdICSQP2iPx-IB4q-6" value="Equipo" style="swimlane;whiteSpace=wrap;html=1;startSize=40;" vertex="1" parent="1">
          <mxGeometry x="40" y="40" width="200" height="130" as="geometry" />
        </mxCell>
        <mxCell id="Up4gpdICSQP2iPx-IB4q-13" value="Descripción : String" style="text;html=1;align=center;verticalAlign=middle;resizable=0;points=[];autosize=1;strokeColor=none;fillColor=none;" vertex="1" parent="Up4gpdICSQP2iPx-IB4q-6">
          <mxGeometry x="35" y="80" width="130" height="30" as="geometry" />
        </mxCell>
        <mxCell id="Up4gpdICSQP2iPx-IB4q-12" value="Nombre del Equipo : String" style="text;html=1;align=center;verticalAlign=middle;resizable=0;points=[];autosize=1;strokeColor=none;fillColor=none;" vertex="1" parent="Up4gpdICSQP2iPx-IB4q-6">
          <mxGeometry x="15" y="50" width="170" height="30" as="geometry" />
        </mxCell>
        <mxCell id="Up4gpdICSQP2iPx-IB4q-14" value="Partido" style="swimlane;whiteSpace=wrap;html=1;startSize=40;" vertex="1" parent="1">
          <mxGeometry x="280" y="240" width="200" height="175" as="geometry" />
        </mxCell>
        <mxCell id="Up4gpdICSQP2iPx-IB4q-16" value="Equipo 2 : Equipo" style="text;html=1;align=center;verticalAlign=middle;resizable=0;points=[];autosize=1;strokeColor=none;fillColor=none;" vertex="1" parent="Up4gpdICSQP2iPx-IB4q-14">
          <mxGeometry x="40" y="70" width="120" height="30" as="geometry" />
        </mxCell>
        <mxCell id="Up4gpdICSQP2iPx-IB4q-15" value="Equipo 1 : Equipo" style="text;html=1;align=center;verticalAlign=middle;resizable=0;points=[];autosize=1;strokeColor=none;fillColor=none;" vertex="1" parent="Up4gpdICSQP2iPx-IB4q-14">
          <mxGeometry x="40" y="40" width="120" height="30" as="geometry" />
        </mxCell>
        <mxCell id="Up4gpdICSQP2iPx-IB4q-17" value="Goles E1 : int" style="text;html=1;align=center;verticalAlign=middle;resizable=0;points=[];autosize=1;strokeColor=none;fillColor=none;" vertex="1" parent="Up4gpdICSQP2iPx-IB4q-14">
          <mxGeometry x="50" y="100" width="100" height="30" as="geometry" />
        </mxCell>
        <mxCell id="Up4gpdICSQP2iPx-IB4q-18" value="Goles E2 : int" style="text;html=1;align=center;verticalAlign=middle;resizable=0;points=[];autosize=1;strokeColor=none;fillColor=none;" vertex="1" parent="Up4gpdICSQP2iPx-IB4q-14">
          <mxGeometry x="50" y="130" width="100" height="30" as="geometry" />
        </mxCell>
        <mxCell id="Up4gpdICSQP2iPx-IB4q-19" value="Pronostico" style="swimlane;whiteSpace=wrap;html=1;startSize=40;" vertex="1" parent="1">
          <mxGeometry x="520" y="40" width="200" height="200" as="geometry" />
        </mxCell>
        <mxCell id="Up4gpdICSQP2iPx-IB4q-20" value="Un Partido : Partido" style="text;html=1;align=center;verticalAlign=middle;resizable=0;points=[];autosize=1;strokeColor=none;fillColor=none;" vertex="1" parent="1">
          <mxGeometry x="555" y="85" width="130" height="30" as="geometry" />
        </mxCell>
        <mxCell id="Up4gpdICSQP2iPx-IB4q-21" value="Un Equipo : Equipo" style="text;html=1;align=center;verticalAlign=middle;resizable=0;points=[];autosize=1;strokeColor=none;fillColor=none;" vertex="1" parent="1">
          <mxGeometry x="555" y="135" width="130" height="30" as="geometry" />
        </mxCell>
        <mxCell id="Up4gpdICSQP2iPx-IB4q-24" value="Un Resultado : Resultado" style="text;html=1;align=center;verticalAlign=middle;resizable=0;points=[];autosize=1;strokeColor=none;fillColor=none;" vertex="1" parent="1">
          <mxGeometry x="540" y="185" width="160" height="30" as="geometry" />
        </mxCell>
      </root>
    </mxGraphModel>
  </diagram>
</mxfile>
